<svg width="30" height="30" viewBox="0 0 30 30" fill="none" xmlns="http://www.w3.org/2000/svg">
<path d="M26.25 4.6875H3.75C2.19937 4.6875 0.9375 5.94937 0.9375 7.5V22.5C0.9375 24.0506 2.19937 25.3125 3.75 25.3125H15C15.5175 25.3125 15.9375 24.8925 15.9375 24.375C15.9375 23.8575 15.5175 23.4375 15 23.4375H3.75C3.23344 23.4375 2.8125 23.0166 2.8125 22.5V7.5C2.8125 6.98344 3.23344 6.5625 3.75 6.5625H26.25C26.7666 6.5625 27.1875 6.98344 27.1875 7.5V22.5C27.1875 23.0166 26.7666 23.4375 26.25 23.4375C25.7325 23.4375 25.3125 23.8575 25.3125 24.375C25.3125 24.8925 25.7325 25.3125 26.25 25.3125C27.8006 25.3125 29.0625 24.0506 29.0625 22.5V7.5C29.0625 5.94937 27.8006 4.6875 26.25 4.6875Z" fill="#B1B1B1"/>
<path d="M7.5 10.3125C8.01656 10.3125 8.4375 10.7334 8.4375 11.25C8.4375 11.7675 8.8575 12.1875 9.375 12.1875C9.8925 12.1875 10.3125 11.7675 10.3125 11.25C10.3125 10.0294 9.52688 8.99906 8.4375 8.61V8.4375C8.4375 7.92 8.0175 7.5 7.5 7.5C6.9825 7.5 6.5625 7.92 6.5625 8.4375V8.61C5.47313 8.99906 4.6875 10.0294 4.6875 11.25C4.6875 12.3478 5.47312 13.4381 6.51375 13.785L7.89281 14.2444C8.16281 14.3344 8.4375 14.715 8.4375 15C8.4375 15.5166 8.01656 15.9375 7.5 15.9375C6.98344 15.9375 6.5625 15.5166 6.5625 15C6.5625 14.4825 6.1425 14.0625 5.625 14.0625C5.1075 14.0625 4.6875 14.4825 4.6875 15C4.6875 16.2206 5.47313 17.2509 6.5625 17.6391V17.8125C6.5625 18.33 6.9825 18.75 7.5 18.75C8.0175 18.75 8.4375 18.33 8.4375 17.8125V17.64C9.52688 17.2509 10.3125 16.2206 10.3125 15C10.3125 13.9022 9.52688 12.8119 8.48625 12.465L7.10719 12.0056C6.83719 11.9156 6.5625 11.535 6.5625 11.25C6.5625 10.7334 6.98344 10.3125 7.5 10.3125ZM16.875 13.125C16.875 12.6075 16.455 12.1875 15.9375 12.1875H12.1875C11.67 12.1875 11.25 12.6075 11.25 13.125C11.25 13.6425 11.67 14.0625 12.1875 14.0625H15.9375C16.455 14.0625 16.875 13.6425 16.875 13.125ZM12.1875 10.3125H19.6875C20.205 10.3125 20.625 9.8925 20.625 9.375C20.625 8.8575 20.205 8.4375 19.6875 8.4375H12.1875C11.67 8.4375 11.25 8.8575 11.25 9.375C11.25 9.8925 11.67 10.3125 12.1875 10.3125ZM12.1875 15.9375C11.67 15.9375 11.25 16.3575 11.25 16.875C11.25 17.3925 11.67 17.8125 12.1875 17.8125H14.0625C14.58 17.8125 15 17.3925 15 16.875C15 16.3575 14.58 15.9375 14.0625 15.9375H12.1875ZM25.3125 18.75C25.3125 16.1653 23.2097 14.0625 20.625 14.0625C18.0403 14.0625 15.9375 16.1653 15.9375 18.75C15.9375 19.7981 16.2956 20.7572 16.8797 21.5391C16.8797 21.5475 16.875 21.5541 16.875 21.5625V27.1875C16.875 27.5334 17.0653 27.8512 17.37 28.0144C17.6737 28.1766 18.0441 28.1578 18.3319 27.9675L20.625 26.4394L22.9172 27.9675C23.0747 28.0725 23.2556 28.125 23.4375 28.125C23.5894 28.125 23.7413 28.0884 23.88 28.0144C24.1847 27.8512 24.375 27.5334 24.375 27.1875V21.5625C24.375 21.5541 24.3703 21.5475 24.3703 21.5391C24.9544 20.7572 25.3125 19.7981 25.3125 18.75ZM22.5 25.4353L21.1453 24.5325C20.8303 24.3225 20.4206 24.3225 20.1056 24.5325L18.75 25.4353V23.04C19.3256 23.2931 19.9575 23.4375 20.625 23.4375C21.2925 23.4375 21.9244 23.2931 22.5 23.04V25.4353ZM20.625 21.5625C19.0744 21.5625 17.8125 20.3006 17.8125 18.75C17.8125 17.1994 19.0744 15.9375 20.625 15.9375C22.1756 15.9375 23.4375 17.1994 23.4375 18.75C23.4375 20.3006 22.1756 21.5625 20.625 21.5625Z" fill="#B1B1B1"/>
</svg>
