<svg width="25" height="25" viewBox="0 0 25 25" fill="none" xmlns="http://www.w3.org/2000/svg">
<g clip-path="url(#clip0_188_312)">
<path d="M20.8325 15.5293V9.4707C23.1782 9.18115 25 7.17627 25 4.75342C25 2.13232 22.8677 0 20.2466 0C17.8237 0 15.8188 1.82178 15.5293 4.16748H9.4707C9.18115 1.82178 7.17627 0 4.75342 0C2.13232 0 0 2.13232 0 4.75342C0 7.17627 1.82178 9.18115 4.16748 9.4707V15.5293C1.82178 15.8188 0 17.8237 0 20.2466C0 22.8677 2.13232 25 4.75342 25C7.17627 25 9.18115 23.1782 9.4707 20.8325H15.5293C15.8188 23.1782 17.8237 25 20.2466 25C22.8677 25 25 22.8677 25 20.2466C25 17.8237 23.1782 15.8188 20.8325 15.5293ZM15.5293 19.6606H9.4707C9.20459 17.5068 7.49268 15.7949 5.33936 15.5293V9.4707C7.49316 9.20459 9.20508 7.49268 9.4707 5.33936H15.5293C15.7954 7.49316 17.5073 9.20508 19.6606 9.4707V15.5293C17.5068 15.7949 15.7949 17.5068 15.5293 19.6606ZM20.2466 1.17188C22.2212 1.17188 23.8281 2.77881 23.8281 4.75342C23.8281 6.72803 22.2212 8.33496 20.2466 8.33496C18.272 8.33496 16.665 6.72852 16.665 4.75342C16.665 2.77832 18.2715 1.17188 20.2466 1.17188ZM1.17188 4.75342C1.17188 2.77881 2.77881 1.17188 4.75342 1.17188C6.72803 1.17188 8.33496 2.77881 8.33496 4.75342C8.33496 6.72803 6.72852 8.33496 4.75342 8.33496C2.77832 8.33496 1.17188 6.72852 1.17188 4.75342ZM4.75342 23.8281C2.77881 23.8281 1.17188 22.2212 1.17188 20.2466C1.17188 18.272 2.77881 16.665 4.75342 16.665C6.72803 16.665 8.33496 18.272 8.33496 20.2466C8.33496 22.2212 6.72852 23.8281 4.75342 23.8281ZM20.2466 23.8281C18.2715 23.8281 16.665 22.2212 16.665 20.2466C16.665 18.272 18.272 16.665 20.2466 16.665C22.2212 16.665 23.8281 18.2715 23.8281 20.2466C23.8281 22.2217 22.2212 23.8281 20.2466 23.8281Z" fill="#B1B1B1" stroke="#B1B1B1" stroke-width="2"/>
</g>
<defs>
<clipPath id="clip0_188_312">
<rect width="25" height="25" fill="white"/>
</clipPath>
</defs>
</svg>
